<svg width="20" height="19" viewBox="0 0 20 19" fill="none" xmlns="http://www.w3.org/2000/svg">
<path d="M0.727538 7.85254C0.0332024 7.85254 -0.142579 8.37988 0.235351 8.89844L2.37988 11.8691C2.67871 12.2822 3.13574 12.2734 3.42578 11.8691L5.57031 8.88965C5.93945 8.38867 5.77246 7.85254 5.08691 7.85254H3.8125C4.6123 4.69727 7.45117 2.38574 10.8701 2.38574C14.9043 2.38574 18.1387 5.62012 18.1387 9.6543C18.1387 13.6885 14.9043 16.9404 10.8701 16.9316C8.52344 16.9229 6.4668 15.8242 5.14844 14.0928C4.78809 13.6797 4.26074 13.5479 3.83008 13.8643C3.42578 14.1543 3.34668 14.7256 3.74219 15.209C5.35937 17.3184 8.03125 18.7422 10.8701 18.7422C15.8447 18.7422 19.958 14.6289 19.958 9.6543C19.958 4.67969 15.8447 0.566406 10.8701 0.566406C6.50195 0.566406 2.80176 3.72168 1.95801 7.85254H0.727538ZM10.5449 4.56543C10.1143 4.56543 9.77148 4.9082 9.77148 5.33008V10.0938C9.77148 10.3047 9.8418 10.498 9.99121 10.7002L12.083 13.46C12.3994 13.873 12.8564 13.9434 13.2344 13.6709C13.5947 13.416 13.6299 12.9502 13.3486 12.5723L11.3096 9.83008V5.33008C11.3096 4.9082 10.9668 4.56543 10.5449 4.56543Z" fill="white"/>
</svg>
