<svg width="12" height="12" viewBox="0 0 12 12" fill="none" xmlns="http://www.w3.org/2000/svg">
<path d="M0.253475 11.6804C0.487633 11.8575 1.23188 11.59 1.23188 11.59C1.33819 11.5337 1.50105 11.407 1.63429 11.304L2.04007 10.9951C2.26415 11.2192 2.59725 11.2677 2.93035 11.1223L4.93499 10.2865C5.0864 10.226 5.16513 10.1654 5.26203 10.0685L11.1124 4.26049C11.6939 3.67908 11.6939 2.9826 11.1064 2.38908L9.79217 1.0688C9.2047 0.481335 8.50822 0.475279 7.92682 1.05669L2.0764 6.85865C1.97345 6.96161 1.91894 7.03428 1.85232 7.19175L1.00443 9.19034C0.865137 9.51132 0.901475 9.82625 1.12556 10.0746L0.253448 10.977C0.0657017 11.1768 0.0193162 11.5032 0.253475 11.6804ZM8.59907 1.85612C8.75653 1.70471 8.94428 1.69866 9.08963 1.85007L10.3251 3.09161C10.4765 3.24302 10.4705 3.42471 10.307 3.58218L9.91329 3.97584L8.19935 2.25584L8.59907 1.85612ZM3.14837 7.27654L7.54527 2.90992L9.25315 4.62992L4.86232 8.99653L3.14837 7.27654ZM2.80922 10.0503C2.69415 10.0927 2.61542 10.0927 2.51246 9.98977L2.13091 9.61428C2.03401 9.51738 2.03401 9.42653 2.0764 9.32358L2.62147 8.0578L4.07499 9.52343L2.80922 10.0503Z" fill="white"/>
</svg>
