<svg width="14" height="14" viewBox="0 0 14 14" fill="none" xmlns="http://www.w3.org/2000/svg">
<path d="M2.8811 2.00363H11.1077V1.91888C11.1077 1.06571 10.424 0.664551 9.47478 0.664551H4.51964C3.60997 0.664551 2.8811 1.06571 2.8811 1.91888V2.00363ZM3.97158 13.027H10.0228C10.8308 13.027 11.232 12.6597 11.232 11.8179V10.863H11.6331C12.7801 10.863 13.4073 10.2641 13.4073 9.11147V4.56878C13.4073 3.41616 12.7801 2.81724 11.6331 2.81724H2.36129C1.25387 2.81724 0.587158 3.41616 0.587158 4.56878V9.11147C0.587158 10.2641 1.20867 10.863 2.36129 10.863H2.7568V11.8179C2.7568 12.6597 3.15796 13.027 3.97158 13.027ZM9.68384 4.77783C9.68384 4.37667 10.0285 4.02637 10.441 4.02637C10.8478 4.02637 11.1924 4.37667 11.1924 4.77783C11.1924 5.19594 10.8478 5.52365 10.441 5.5293C10.0285 5.5293 9.68384 5.19594 9.68384 4.77783ZM4.20323 12.0439C3.93202 12.0439 3.79642 11.9139 3.79642 11.6371V7.54074C3.79642 7.26953 3.93202 7.13958 4.20323 7.13958H9.79684C10.068 7.13958 10.198 7.26953 10.198 7.54074V11.6371C10.198 11.9139 10.068 12.0439 9.79684 12.0439H4.20323ZM5.1355 9.03237H8.86457C9.08493 9.03237 9.25443 8.85721 9.25443 8.63686C9.25443 8.4278 9.08493 8.2583 8.86457 8.2583H5.1355C4.90949 8.2583 4.74564 8.4278 4.74564 8.63686C4.74564 8.85721 4.91514 9.03237 5.1355 9.03237ZM5.1355 10.9478H8.86457C9.08493 10.9478 9.25443 10.7783 9.25443 10.5692C9.25443 10.3488 9.08493 10.1793 8.86457 10.1793H5.1355C4.91514 10.1793 4.74564 10.3488 4.74564 10.5692C4.74564 10.7783 4.90949 10.9478 5.1355 10.9478Z" fill="white"/>
</svg>
