<svg width="18" height="18" viewBox="0 0 18 18" fill="none" xmlns="http://www.w3.org/2000/svg">
<path d="M4.58038 0.160889V3.84392C4.58038 4.43001 4.8132 4.99208 5.22762 5.4065C5.64204 5.82093 6.20412 6.05375 6.7902 6.05375H9.73663C10.3227 6.05375 10.8848 5.82093 11.2992 5.4065C11.7136 4.99208 11.9464 4.43001 11.9464 3.84392V0.160889H12.5048C13.2862 0.161056 14.0355 0.471591 14.5879 1.02419L16.976 3.41227C17.5286 3.96471 17.8391 4.71402 17.8393 5.4954V14.893C17.8393 15.6745 17.5289 16.4239 16.9763 16.9765C16.4238 17.529 15.6743 17.8395 14.8929 17.8395V11.21C14.8929 10.6239 14.6601 10.0618 14.2456 9.64742C13.8312 9.23299 13.2691 9.00017 12.6831 9.00017H5.31699C4.09864 9.00017 3.10716 9.98575 3.10716 11.207V17.8395C2.32572 17.8395 1.57629 17.529 1.02372 16.9765C0.471162 16.4239 0.160736 15.6745 0.160736 14.893V3.10732C0.160736 2.32588 0.471162 1.57644 1.02372 1.02388C1.57629 0.471315 2.32572 0.160889 3.10716 0.160889H4.58038ZM6.05359 0.160889V3.84392C6.05359 4.03928 6.1312 4.22664 6.26934 4.36478C6.40748 4.50292 6.59484 4.58053 6.7902 4.58053H9.73663C9.93199 4.58053 10.1193 4.50292 10.2575 4.36478C10.3956 4.22664 10.4732 4.03928 10.4732 3.84392V0.160889H6.05359ZM4.58038 17.8395H13.4197V11.21C13.4197 11.0146 13.3421 10.8273 13.2039 10.6891C13.0658 10.551 12.8784 10.4734 12.6831 10.4734H5.31699C4.90891 10.4734 4.58038 10.8019 4.58038 11.207V17.8395Z" fill="white"/>
</svg>
