<svg width="14" height="10" viewBox="0 0 14 10" fill="none" xmlns="http://www.w3.org/2000/svg">
<path d="M7.00046 9.02724C10.9899 9.02724 13.6823 5.80913 13.6823 4.81176C13.6823 3.8193 10.985 0.601196 7.00046 0.601196C3.06994 0.601196 0.318584 3.8193 0.318584 4.81176C0.318584 5.80913 3.06503 9.02724 7.00046 9.02724ZM7.00537 7.49433C5.50686 7.49433 4.31297 6.27096 4.30806 4.81667C4.30314 3.31325 5.50686 2.1341 7.00537 2.1341C8.49405 2.1341 9.69777 3.31816 9.69777 4.81667C9.69777 6.27096 8.49405 7.49433 7.00537 7.49433ZM7.00537 5.81404C7.55564 5.81404 8.01256 5.36203 8.01256 4.81667C8.01256 4.2664 7.55564 3.80948 7.00537 3.80948C6.44527 3.80948 5.99326 4.2664 5.99326 4.81667C5.99326 5.36203 6.44527 5.81404 7.00537 5.81404Z" fill="white"/>
</svg>
